<?xml version="1.0" encoding="UTF-8" standalone="no"?>
<svg
   xmlns:dc="http://purl.org/dc/elements/1.1/"
   xmlns:cc="http://creativecommons.org/ns#"
   xmlns:rdf="http://www.w3.org/1999/02/22-rdf-syntax-ns#"
   xmlns:svg="http://www.w3.org/2000/svg"
   xmlns="http://www.w3.org/2000/svg"
   id="svg2"
   version="1.1"
   viewBox="0 0 20 20"
   height="20"
   width="20">
  <metadata
     id="metadata15">
    <rdf:RDF>
      <cc:Work
         rdf:about="">
        <dc:format>image/svg+xml</dc:format>
        <dc:type
           rdf:resource="http://purl.org/dc/dcmitype/StillImage" />
        <dc:title></dc:title>
      </cc:Work>
    </rdf:RDF>
  </metadata>
  <defs
     id="defs13" />
  <path
     id="path5"
     d="m 15.128906,2.1308596 c 0,0 -2.853352,0.770929 -5.109375,0.412109 v -0.0332 H 8.6914063 v 6.644531 C 6.5456766,9.4368404 4.8710937,11.262289 4.8710937,13.482422 c 0,2.414208 1.9720843,4.382132 4.3847656,4.386718 h 0.00195 c 2.4142107,0 4.3828157,-1.973352 4.3828157,-4.386718 0,-2.152483 -1.569658,-3.9440579 -3.621094,-4.3085942 V 4.6386716 c 1.49766,-0.3659794 3.855434,-1.1296418 5.109375,-2.507812 z M 9.2578123,10.423828 c 1.6951677,0 3.0546877,1.362584 3.0546877,3.058594 0,1.695355 -1.35848,3.057543 -3.0527347,3.058593 -1.696696,-0.0032 -3.0605466,-1.363425 -3.0605466,-3.058593 0,-1.695168 1.3634246,-3.058594 3.0585936,-3.058594 z"
     style="color:#000000;font-style:normal;font-variant:normal;font-weight:normal;font-stretch:normal;font-size:medium;line-height:normal;font-family:sans-serif;font-variant-ligatures:normal;font-variant-position:normal;font-variant-caps:normal;font-variant-numeric:normal;font-variant-alternates:normal;font-feature-settings:normal;text-indent:0;text-align:start;text-decoration:none;text-decoration-line:none;text-decoration-style:solid;text-decoration-color:#000000;letter-spacing:normal;word-spacing:normal;text-transform:none;writing-mode:lr-tb;direction:ltr;text-orientation:mixed;dominant-baseline:auto;baseline-shift:baseline;text-anchor:start;white-space:normal;shape-padding:0;clip-rule:nonzero;display:inline;overflow:visible;visibility:visible;opacity:1;isolation:auto;mix-blend-mode:normal;color-interpolation:sRGB;color-interpolation-filters:linearRGB;solid-color:#000000;solid-opacity:1;vector-effect:none;fill:#211e1e;fill-opacity:1;fill-rule:nonzero;stroke:none;stroke-width:1.32862496;stroke-linecap:butt;stroke-linejoin:miter;stroke-miterlimit:3.86360002;stroke-dasharray:none;stroke-dashoffset:0;stroke-opacity:1;color-rendering:auto;image-rendering:auto;shape-rendering:auto;text-rendering:auto;enable-background:accumulate" />
</svg>
