<?xml version="1.0" encoding="UTF-8" standalone="no"?>
<svg
   xmlns:dc="http://purl.org/dc/elements/1.1/"
   xmlns:cc="http://creativecommons.org/ns#"
   xmlns:rdf="http://www.w3.org/1999/02/22-rdf-syntax-ns#"
   xmlns:svg="http://www.w3.org/2000/svg"
   xmlns="http://www.w3.org/2000/svg"
   version="1.1"
   width="14"
   height="14"
   viewBox="0 0 14 14"
   id="svg4">
  <metadata
     id="metadata10">
    <rdf:RDF>
      <cc:Work
         rdf:about="">
        <dc:format>image/svg+xml</dc:format>
        <dc:type
           rdf:resource="http://purl.org/dc/dcmitype/StillImage" />
        <dc:title></dc:title>
      </cc:Work>
    </rdf:RDF>
  </metadata>
  <defs
     id="defs8" />
  <rect
     width="14"
     height="14"
     x="0"
     y="0"
     id="canvas"
     style="fill:none;stroke:none;visibility:hidden" />
  <path
     style="fill:#000000;fill-opacity:1;fill-rule:evenodd;stroke:none;stroke-width:2.14766216;stroke-linecap:round;stroke-linejoin:miter;stroke-miterlimit:4;stroke-dasharray:none;stroke-opacity:1"
     d="m 4.3198784,1.7494483 c -0.611643,0.00753 -1.2245936,0.1522935 -1.7908079,0.4396535 -0.00637,0.00291 -0.0123,0.00637 -0.018634,0.00932 -0.00836,0.00429 -0.017077,0.00751 -0.025411,0.011851 v 7.614e-4 C 0.09184509,3.3474762 -0.59338561,6.3518696 0.51886099,8.5661204 2.0636017,11.798892 6.0157523,12.904138 9.1831941,11.883437 12.087627,11.081564 14.50903,8.2223974 13.907575,4.9929736 c -0.0037,-0.020088 -0.0062,-0.040037 -0.01017,-0.060146 h -0.0017 C 13.557151,2.6887087 11.254505,1.3417573 9.1340206,1.8696428 8.371789,2.0594372 7.6928483,2.3748337 7.0865339,2.7777547 6.3127549,2.0914614 5.319733,1.7370523 4.3198438,1.7493535 Z m 0.041511,1.9881882 c 0.429973,0.00173 0.8622144,0.1271463 1.2156143,0.3642599 -0.9823958,1.0931978 -1.821881,2.6437794 -2.3685509,3.866261 -0.1517335,0.323701 -0.1172907,0.703709 0.090643,0.994516 0.207933,0.29081 0.5569692,0.447204 0.9123474,0.408312 0.355379,-0.03889 0.6621076,-0.266627 0.8022204,-0.595525 C 5.5226061,7.6373463 6.282957,6.2873839 7.0806399,5.4106968 7.814696,6.1918803 8.631337,7.4630691 8.9731134,8.4594914 c 0.1107175,0.33929 0.3955365,0.592243 0.7454636,0.662446 0.349927,0.0702 0.710666,-0.05327 0.943689,-0.3236 0.233025,-0.270328 0.302308,-0.645206 0.181285,-0.980962 C 10.420603,6.5843054 9.4985705,5.1176019 8.6351032,4.1705126 8.9441798,4.0066912 9.2683146,3.874844 9.6118292,3.7893089 9.7388475,3.757689 9.8682663,3.7408545 9.9981171,3.7376358 10.907055,3.7151114 11.827288,4.3586395 11.947336,5.2556726 l 0.0042,0.030499 0.006,0.030499 C 12.358587,7.3459895 10.622,9.4359134 8.6173218,9.9893774 l -0.020337,0.006 -0.020337,0.006 C 6.2921833,10.737447 3.3279724,9.8574924 2.2952602,7.6962754 l -0.00422,-0.0085 -0.00422,-0.0093 C 1.6537865,6.418273 2.0912852,4.5684103 3.3567245,3.9850611 l 0.022019,-0.010168 0.022019,-0.011851 C 3.6938347,3.8098017 4.026969,3.7363268 4.3613962,3.7377106 Z"
     id="path7165" />
</svg>
