<?xml version="1.0" encoding="UTF-8" standalone="no"?>
<!-- Created with Inkscape (http://www.inkscape.org/) -->

<svg
   xmlns:dc="http://purl.org/dc/elements/1.1/"
   xmlns:cc="http://creativecommons.org/ns#"
   xmlns:rdf="http://www.w3.org/1999/02/22-rdf-syntax-ns#"
   xmlns:svg="http://www.w3.org/2000/svg"
   xmlns="http://www.w3.org/2000/svg"
   xmlns:sodipodi="http://sodipodi.sourceforge.net/DTD/sodipodi-0.dtd"
   xmlns:inkscape="http://www.inkscape.org/namespaces/inkscape"
   version="1.1"
   id="svg2"
   width="14"
   height="14"
   viewBox="0 0 14 14"
   sodipodi:docname="kebab.svg"
   inkscape:version="0.92.1 r15371">
  <metadata
     id="metadata8">
    <rdf:RDF>
      <cc:Work
         rdf:about="">
        <dc:format>image/svg+xml</dc:format>
        <dc:type
           rdf:resource="http://purl.org/dc/dcmitype/StillImage" />
        <dc:title></dc:title>
      </cc:Work>
    </rdf:RDF>
  </metadata>
  <defs
     id="defs6" />
  <sodipodi:namedview
     pagecolor="#ffffff"
     bordercolor="#666666"
     borderopacity="1"
     objecttolerance="10"
     gridtolerance="10"
     guidetolerance="10"
     inkscape:pageopacity="0"
     inkscape:pageshadow="2"
     inkscape:window-width="1507"
     inkscape:window-height="1135"
     id="namedview4"
     showgrid="false"
     inkscape:zoom="65.928571"
     inkscape:cx="7"
     inkscape:cy="7"
     inkscape:window-x="194"
     inkscape:window-y="37"
     inkscape:window-maximized="0"
     inkscape:current-layer="svg2"
     showguides="false" />
  <path
     style="opacity:1;fill:#000000;fill-opacity:1;stroke:none;stroke-width:0;stroke-miterlimit:4;stroke-dasharray:none"
     d="M 6.9946273,1.0975997e-4 C 7.1546635,0.44653434 7.2297189,1.6602744 7.2297189,1.6602744 8.9138715,1.8986724 10.096319,2.6194755 10.993497,3.7705757 9.4282794,3.6484602 7.7623367,3.7078565 6.2751906,4.0013913 7.9478952,4.1899643 9.3373224,4.1850306 10.986738,4.1853302 11.04687,5.0641886 10.893046,6.0360903 10.716304,6.7992685 9.8133206,6.913531 8.8897224,6.9325869 7.9739112,7.0309047 8.9303978,7.1765636 9.8462593,7.2256164 10.728824,7.3794587 10.628742,7.9324765 10.440771,8.5001224 10.255938,9.0535971 9.4674465,9.2956396 9.0409158,9.0934741 8.0120939,9.1245631 8.7287197,9.4737873 9.4851815,9.5450474 10.217501,9.6579814 10.09669,10.083458 9.9792931,10.400273 9.8268741,10.842793 c -1.3402504,-0.0088 -2.690456,-0.0014 -4.0240688,0.0536 0.3211584,0.419756 2.5211717,0.449782 3.7736677,0.473158 -0.4782626,0.961025 -1.5229566,1.199988 -2.3621575,1.392011 -0.035565,0.28706 -0.088993,0.793817 -0.2143157,1.238328 C 6.8699741,13.533127 6.8357963,13.04491 6.8125441,12.77203 5.2767506,12.313358 4.4536191,11.453317 3.943574,10.128096 4.6156589,10.099676 5.0013917,9.9354756 5.5700537,9.7426519 4.9861709,9.6637395 4.3537805,9.6695558 3.8463134,9.6518519 3.6409407,9.141851 3.565626,8.646566 3.4381394,8.110742 4.7360974,7.8969945 6.3086533,7.9099709 7.4290306,7.8958996 6.0876631,7.5918085 4.524576,7.5101092 3.3290898,7.5318603 3.2014224,6.9553225 3.1468276,6.3436361 3.0932188,5.7754668 4.8581851,5.8765004 8.1401304,5.6815574 9.0239975,5.5862918 7.2023132,5.3491645 4.205573,5.3889804 3.0378804,5.2634464 2.9879885,4.8790967 2.97937,4.5910169 3.0612958,3.9332116 c 0.2785586,0 1.8356891,-0.4059038 1.8356891,-0.4785077 C 4.2651244,3.3057931 3.8247883,3.3155638 3.1662134,3.286941 c 0.97295,-1.1292157 2.022203,-1.4105529 3.628555,-1.6235215 0,0 0.024198,-1.23473432 0.1998589,-1.66330974003 z"
     id="path4492"
     inkscape:connector-curvature="0"
     sodipodi:nodetypes="ccccccccccccccccccccccccccccccc" />
</svg>
